<?xml version="1.0" encoding="iso-8859-1"?>
<!-- Generator: Adobe Illustrator 19.0.0, SVG Export Plug-In . SVG Version: 6.00 Build 0)  -->
<svg version="1.1" id="Layer_1" xmlns="http://www.w3.org/2000/svg" xmlns:xlink="http://www.w3.org/1999/xlink" x="0px" y="0px"
	 viewBox="0 0 512.001 512.001" style="enable-background:new 0 0 512.001 512.001;" xml:space="preserve">
<g>
	<g>
		<path d="M478.892,57.462c-3.891-1.461-6.511-5.245-6.511-9.413c0-4.168,2.62-7.951,6.511-9.413
			c8.64-3.234,13.01-12.859,9.771-21.495c-3.229-8.625-12.881-13.016-21.489-9.766c-16.858,6.321-28.184,22.662-28.184,40.673
			s11.326,34.352,28.184,40.678c3.901,1.461,6.521,5.239,6.521,9.407c0,4.168-2.619,7.946-6.521,9.407
			c-8.63,3.234-13.01,12.859-9.771,21.495c2.511,6.7,8.87,10.842,15.63,10.842c1.946,0,3.923-0.342,5.859-1.065
			c16.858-6.321,28.195-22.668,28.195-40.678S495.75,63.777,478.892,57.462z"/>
	</g>
</g>
<g>
	<g>
		<path d="M395.416,57.462c-3.891-1.461-6.511-5.245-6.511-9.413c0-4.168,2.62-7.951,6.511-9.413
			c8.64-3.234,13.01-12.859,9.771-21.495c-3.229-8.625-12.87-13.016-21.489-9.766c-16.858,6.321-28.184,22.662-28.184,40.673
			s11.326,34.352,28.184,40.678c3.901,1.461,6.521,5.239,6.521,9.407c0,4.168-2.619,7.946-6.521,9.407
			c-8.63,3.234-13.01,12.859-9.771,21.495c2.511,6.7,8.87,10.842,15.63,10.842c1.945,0,3.923-0.342,5.859-1.065
			c16.858-6.321,28.195-22.668,28.195-40.678S412.274,63.777,395.416,57.462z"/>
	</g>
</g>
<g>
	<g>
		<path d="M128.292,57.462c-3.891-1.461-6.511-5.245-6.511-9.413c0-4.168,2.62-7.951,6.511-9.413
			c8.64-3.234,13.01-12.859,9.771-21.495c-3.229-8.625-12.87-13.016-21.489-9.766c-16.858,6.321-28.184,22.662-28.184,40.673
			s11.326,34.353,28.184,40.678c3.901,1.461,6.521,5.239,6.521,9.407c0,4.168-2.619,7.946-6.521,9.407
			c-8.63,3.234-13.01,12.859-9.771,21.495c2.511,6.7,8.87,10.842,15.63,10.842c1.946,0,3.923-0.342,5.859-1.065
			c16.858-6.321,28.195-22.668,28.195-40.678S145.15,63.777,128.292,57.462z"/>
	</g>
</g>
<g>
	<g>
		<path d="M44.816,57.462c-3.891-1.461-6.511-5.245-6.511-9.413c0-4.168,2.62-7.951,6.511-9.413
			c8.64-3.234,13.01-12.859,9.771-21.495C51.359,8.517,41.707,4.126,33.099,7.376C16.241,13.697,4.915,30.038,4.915,48.049
			s11.326,34.353,28.184,40.678c3.901,1.461,6.521,5.239,6.521,9.407c0,4.168-2.619,7.946-6.521,9.407
			c-8.63,3.234-13.01,12.859-9.771,21.495c2.511,6.7,8.87,10.842,15.63,10.842c1.946,0,3.923-0.342,5.859-1.065
			c16.858-6.321,28.195-22.668,28.195-40.678C73.011,80.124,61.674,63.777,44.816,57.462z"/>
	</g>
</g>
<g>
	<g>
		<path d="M510.364,472.904c-3.989-8.326-13.946-11.865-22.271-7.853c-23.282,11.151-51.085,9.157-72.574-5.163
			c-36.032-24.032-82.639-24.043-118.693,0c-24.792,16.527-56.835,16.537-81.65,0c-36.032-24.032-82.639-24.043-118.693,0
			c-21.499,14.321-49.292,16.305-72.574,5.163c-8.326-3.999-18.282-0.462-22.271,7.853c-3.978,8.315-0.456,18.288,7.859,22.266
			c33.836,16.201,74.27,13.332,105.508-7.5c24.815-16.537,56.857-16.527,81.65,0c18.032,12.021,38.694,18.026,59.346,18.026
			c20.662,0,41.325-6.006,59.347-18.026c24.815-16.537,56.857-16.527,81.65,0c31.238,20.831,71.65,23.711,105.508,7.5
			C510.82,491.191,514.341,481.219,510.364,472.904z"/>
	</g>
</g>
<g>
	<g>
		<path d="M422.952,206.655H89.048c-36.882,0-66.781,29.899-66.781,66.781v65.463c0,16.149,10.883,30.982,26.736,34.062
			c21.316,4.14,40.045-12.154,40.045-32.743v-50.086c0-9.22,7.475-16.695,16.695-16.695h33.39c9.22,0,16.695,7.475,16.695,16.695
			v51.559l11.089-0.693c23.399-1.463,45.562,7.526,63.858,22.187c7.262,5.82,16.106,8.929,25.224,8.929
			c7.924,0,15.641-2.347,22.304-6.788c23.192-15.46,50.111-23.632,77.868-23.635v-51.559c0-9.22,7.475-16.695,16.695-16.695h33.39
			c9.22,0,16.695,7.475,16.695,16.695v48.768c0,16.149,10.883,30.982,26.736,34.062c21.316,4.14,40.045-12.154,40.045-32.743
			v-66.781C489.733,236.554,459.834,206.655,422.952,206.655z"/>
	</g>
</g>
<g>
	<g>
		<path d="M256,39.703c-36.825,0-66.781,29.956-66.781,66.781s29.956,66.781,66.781,66.781s66.781-29.956,66.781-66.781
			S292.825,39.703,256,39.703z"/>
	</g>
</g>
<g>
	<g>
		<path d="M510.364,406.123c-3.989-8.321-13.946-11.854-22.271-7.853c-23.282,11.146-51.085,9.151-72.574-5.163
			c-36.032-24.038-82.639-24.038-118.693,0c-24.792,16.527-56.835,16.537-81.65,0c-36.032-24.038-82.639-24.038-118.693,0
			c-21.499,14.316-49.292,16.293-72.574,5.163c-8.326-3.989-18.282-0.467-22.271,7.853c-3.978,8.315-0.456,18.288,7.859,22.266
			c33.836,16.195,74.27,13.326,105.508-7.5c24.815-16.537,56.857-16.527,81.65,0c18.032,12.021,38.694,18.026,59.346,18.026
			c20.662,0,41.325-6.006,59.347-18.026c24.815-16.537,56.857-16.527,81.65,0c31.238,20.826,71.65,23.716,105.508,7.5
			C510.82,424.411,514.341,414.438,510.364,406.123z"/>
	</g>
</g>
<g>
</g>
<g>
</g>
<g>
</g>
<g>
</g>
<g>
</g>
<g>
</g>
<g>
</g>
<g>
</g>
<g>
</g>
<g>
</g>
<g>
</g>
<g>
</g>
<g>
</g>
<g>
</g>
<g>
</g>
</svg>
