<?xml version="1.0" encoding="iso-8859-1"?>
<!-- Generator: Adobe Illustrator 19.0.0, SVG Export Plug-In . SVG Version: 6.00 Build 0)  -->
<svg version="1.1" id="Capa_1" xmlns="http://www.w3.org/2000/svg" xmlns:xlink="http://www.w3.org/1999/xlink" x="0px" y="0px"
	 viewBox="0 0 480 480" style="enable-background:new 0 0 480 480;" xml:space="preserve">
<g>
	<g>
		<g>
			<path d="M24,0v40h16v416h8v24h384v-24h8V40h16V0H24z M168,328v48H56v-48H168z M56,312V40h112v272H56z M168,392v48H56v-48H168z
				 M416,464H64v-8h352V464z M184,440V40h112v400H184z M424,440H312V40h112V440z M440,24H40v-8h400V24z"/>
			<rect x="328" y="176" width="16" height="64"/>
			<rect x="264" y="176" width="16" height="64"/>
			<rect x="96" y="408" width="32" height="16"/>
			<rect x="96" y="344" width="32" height="16"/>
			<path d="M64,304h96V48H64V304z M80,64h64v224H80V64z"/>
			<rect x="96.004" y="73.368" transform="matrix(0.7071 0.7071 -0.7071 0.7071 98.3422 -45.4255)" width="16" height="45.256"/>
			
				<rect x="104.017" y="105.371" transform="matrix(-0.7071 -0.7071 0.7071 -0.7071 100.7156 297.7156)" width="16" height="45.256"/>
		</g>
	</g>
</g>
<g>
</g>
<g>
</g>
<g>
</g>
<g>
</g>
<g>
</g>
<g>
</g>
<g>
</g>
<g>
</g>
<g>
</g>
<g>
</g>
<g>
</g>
<g>
</g>
<g>
</g>
<g>
</g>
<g>
</g>
</svg>
